<svg width="315" height="98" viewBox="0 0 315 98" fill="none" xmlns="http://www.w3.org/2000/svg">
<path d="M76.1836 15.2232V53.1385H93.9518V1.80453H67.0188L46.9802 50.377L26.9479 1.80453H0.0148926V69.2804H17.7831V15.2232H17.9681L39.3269 69.2804H54.6398L75.9986 15.2232H76.1836Z" fill="white"/>
<path d="M158.479 32.5584V32.3735C164.806 30.39 167.446 24.159 167.446 18.8719C167.446 6.41631 158.288 1.88815 148.479 1.88815H97.8913V56.4492H76.1753V69.2811H145.928C166.222 69.2811 170.463 57.8587 170.463 48.8725C170.463 41.7168 166.407 33.7893 158.479 32.5584ZM116.202 14.1588H139.129C146.687 14.1588 148.6 17.1755 148.6 21.4102C148.6 26.4103 145.96 28.6808 141.712 28.6808H116.202V14.1588ZM143.192 56.4365H116.202V40.3902H141.304C147.816 40.3902 151.024 43.1326 151.024 48.509C151.024 52.7566 148.855 56.4365 143.192 56.4365Z" fill="white"/>
<path d="M223.314 40.5816C223.314 47.1888 223.033 58.3243 206.234 58.3243C189.34 58.3243 189.149 47.1888 189.149 40.5816V1.88815H170.845V45.1097C170.845 52.6609 171.789 71.1626 206.234 71.1626C240.68 71.1626 241.624 52.6673 241.624 45.1097V1.88815H223.314V40.5816Z" fill="white"/>
<path d="M293.06 29.6307L270.1 25.9508C265.311 25.1982 262.383 23.3232 262.383 19.6305C262.383 15.1024 267.294 11.703 274.845 11.703C282.205 11.703 290.509 12.6469 291.74 21.4226H312.027C310.803 2.28959 290.228 0 276.357 0C255.215 0 242.944 6.03967 242.944 21.142C242.944 34.9178 254.271 38.5085 265.974 40.2049L282.677 42.756C289.948 43.8912 294.1 45.3071 294.1 50.4985C294.1 56.4425 288.36 58.8979 279.661 58.8979C271.733 58.8979 262.575 57.3864 262.294 48.0558H241.713C241.713 69.1022 263.327 71.1813 279.654 71.1813C306.173 71.1813 314.668 60.977 314.668 48.5278C314.674 36.1487 305.331 31.6142 293.06 29.6307Z" fill="white"/>
<path d="M2.50005 92.5843H0V74.7267H3.82661L8.99891 88.5153L14.1648 74.7267H17.9468V92.5843H15.5233L15.6955 77.1056L9.92368 92.5843H8.0869L2.34699 77.1056L2.50005 92.5843Z" fill="white"/>
<path d="M23.8059 86.7428C23.9745 87.8064 24.5146 88.7757 25.3302 89.4788C26.0314 90.0677 26.8957 90.4284 27.8075 90.5127C28.7192 90.597 29.635 90.401 30.4324 89.9508C31.0963 89.563 31.6412 89.0005 32.0076 88.3245H34.7373C34.2152 89.6913 33.3121 90.8799 32.1352 91.7493C31.0011 92.5513 29.64 92.9692 28.2512 92.9419C27.3127 92.9525 26.3819 92.7724 25.5152 92.4126C24.6686 92.0441 23.9067 91.5057 23.2766 90.8309C22.3261 89.8292 21.6785 88.5788 21.4087 87.2245C21.139 85.8702 21.2581 84.4672 21.7523 83.1777C22.0802 82.3428 22.5652 81.5786 23.1809 80.9264C23.8078 80.2161 24.581 79.6499 25.4474 79.2668C26.3138 78.8837 27.2529 78.6927 28.2002 78.7069C29.3519 78.6982 30.4868 78.9835 31.4974 79.536C32.5262 80.0819 33.403 80.8753 34.0485 81.8447C34.4438 82.4657 34.7367 83.1461 34.9159 83.8601C35.1155 84.6781 35.2098 85.5182 35.1965 86.3601V86.7428H23.8059ZM32.5242 84.5489C32.28 83.5557 31.7315 82.6638 30.9553 81.9978C30.202 81.3846 29.2541 81.0611 28.2831 81.0858C27.2802 81.0567 26.2988 81.3794 25.5088 81.9978C24.7113 82.6521 24.1474 83.5471 23.9016 84.5489H32.5242Z" fill="white"/>
<path d="M40.6837 92.5843H38.2666V79.1146H40.5945V80.6453C41.0452 80.082 41.6161 79.6266 42.2654 79.3123C42.9217 79.0219 43.6334 78.8783 44.3509 78.8914C45.1003 78.8423 45.8513 78.956 46.5526 79.2246C47.2539 79.4932 47.8887 79.9104 48.4135 80.4476C49.3574 81.4807 49.8293 82.9689 49.8293 84.9119V92.5652H47.3867V85.4285C47.4729 84.3073 47.1932 83.1884 46.5895 82.2397C46.2539 81.8951 45.8499 81.6246 45.4035 81.4457C44.957 81.2667 44.478 81.1833 43.9974 81.2007C43.5167 81.2181 43.0451 81.3361 42.6127 81.5469C42.1804 81.7577 41.7971 82.0567 41.4873 82.4246C40.9452 83.2346 40.671 84.5803 40.671 86.449L40.6837 92.5843Z" fill="white"/>
<path d="M53.8587 93.6637H56.448C56.7981 94.2698 57.3076 94.7684 57.9213 95.105C58.5645 95.4403 59.2815 95.6091 60.0068 95.5961C60.6111 95.6251 61.215 95.5309 61.7818 95.3193C62.3486 95.1077 62.8665 94.7831 63.304 94.3652C63.7304 93.9397 64.064 93.4304 64.2835 92.8694C64.5031 92.3085 64.6039 91.7081 64.5796 91.1062V90.9276C63.9921 91.5513 63.285 92.0502 62.5005 92.3945C61.7297 92.7284 60.8978 92.8978 60.0578 92.892C59.1227 92.9184 58.1922 92.752 57.3243 92.4031C56.4564 92.0542 55.6696 91.5302 55.0131 90.8639C54.3482 90.1952 53.8271 89.3976 53.4816 88.5203C53.1362 87.6429 52.9737 86.7042 53.0041 85.7617C52.9985 84.8406 53.1695 83.927 53.5079 83.0703C54.1799 81.3667 55.4914 79.9934 57.1623 79.2437C58.0355 78.8931 58.9703 78.7218 59.9111 78.7399C60.786 78.7286 61.654 78.8957 62.4622 79.231C63.2699 79.5762 64.0006 80.0793 64.6115 80.7106V79.0843H67.035V90.3537C67.035 92.7006 66.427 94.5374 65.211 95.864C64.5659 96.5379 63.7829 97.0645 62.9156 97.4079C62.0482 97.7514 61.1169 97.9034 60.1854 97.8538C58.7874 97.8904 57.4105 97.5084 56.2312 96.7568C55.1175 96.0192 54.2824 94.9305 53.8587 93.6637ZM55.485 85.7617C55.4689 86.3951 55.5803 87.0252 55.8125 87.6146C56.0448 88.2041 56.3932 88.7408 56.8371 89.1929C57.2631 89.64 57.7772 89.9938 58.347 90.232C58.9167 90.4702 59.5297 90.5877 60.1471 90.5769C60.746 90.5793 61.3389 90.457 61.888 90.2176C62.437 89.9782 62.9301 89.6271 63.3359 89.1865C63.7724 88.7655 64.1186 88.26 64.3532 87.7007C64.5879 87.1415 64.7061 86.5403 64.7008 85.9339C64.7108 85.3061 64.5966 84.6825 64.3645 84.0991C64.1325 83.5157 63.7872 82.984 63.3487 82.5346C62.9449 82.0903 62.4525 81.7353 61.9033 81.4926C61.3542 81.2499 60.7603 81.1247 60.1599 81.1251C59.5466 81.1158 58.9376 81.229 58.3687 81.4582C57.7998 81.6875 57.2825 82.028 56.847 82.4599C56.4115 82.8918 56.0667 83.4064 55.8328 83.9734C55.5989 84.5404 55.4807 85.1484 55.485 85.7617Z" fill="white"/>
<path d="M70.8218 92.5843V74.7267H73.2198V92.5843H70.8218Z" fill="white"/>
<path d="M75.7617 79.1159H78.3702L82.0055 89.1416L85.9469 79.1159H88.5554L81.3039 96.9734H78.7529L80.6279 92.2348L75.7617 79.1159Z" fill="white"/>
<path d="M107.369 86.4618C107.39 87.39 107.331 88.3183 107.19 89.2361C107.086 89.7836 106.885 90.3083 106.597 90.7858C106.167 91.4656 105.561 92.0165 104.843 92.3803C104.071 92.7629 103.218 92.9553 102.356 92.9415C101.751 92.973 101.146 92.8843 100.576 92.6807C100.006 92.4771 99.4815 92.1626 99.0334 91.7553C98.6149 91.3386 98.2859 90.8408 98.0665 90.2925C97.8472 89.7441 97.7422 89.1568 97.7579 88.5664H100.309C100.347 89.1217 100.572 89.6477 100.947 90.0588C101.345 90.4029 101.862 90.5789 102.388 90.5499C102.742 90.5891 103.101 90.5357 103.429 90.3948C103.756 90.254 104.041 90.0305 104.257 89.7463C104.601 89.2169 104.773 88.0116 104.773 86.1429V74.7523H107.324L107.369 86.4618Z" fill="white"/>
<path d="M114.615 92.5844H112.166V89.5741H114.615V92.5844Z" fill="white"/>
<path d="M140.947 91.4808C140.221 91.9592 139.428 92.3267 138.594 92.5714C137.751 92.8178 136.877 92.9423 135.998 92.9413C134.976 92.9432 133.96 92.7728 132.994 92.4375C131.858 92.0381 130.814 91.4146 129.923 90.6039C129.032 89.7932 128.314 88.8118 127.809 87.718C127.21 86.4144 126.908 84.9943 126.923 83.5597C126.916 82.3461 127.157 81.1439 127.631 80.0265C128.121 78.886 128.827 77.8508 129.71 76.978C130.538 76.1591 131.517 75.5092 132.593 75.0647C133.675 74.6298 134.832 74.4131 135.998 74.4269C137.806 74.4297 139.572 74.9687 141.073 75.9758C142.573 76.9828 143.742 78.4125 144.43 80.0839C144.897 81.2649 145.131 82.5255 145.118 83.7957C145.132 84.8978 144.946 85.9932 144.57 87.0292C144.185 88.0469 143.617 88.9851 142.893 89.7971C143.208 89.9417 143.537 90.0529 143.875 90.1287C144.229 90.2056 144.59 90.242 144.953 90.2372H145.278V92.7245H145.048C144.363 92.7209 143.682 92.6178 143.027 92.4183C142.3 92.1872 141.602 91.8726 140.947 91.4808ZM140.603 88.3685C141.203 87.7153 141.681 86.9591 142.013 86.1363C142.318 85.3033 142.467 84.4212 142.453 83.5342C142.456 82.7222 142.305 81.9169 142.006 81.1617C141.711 80.4064 141.279 79.7122 140.731 79.1145C140.128 78.4347 139.392 77.8856 138.569 77.5009C137.765 77.1483 136.895 76.9701 136.017 76.978C135.194 76.9745 134.379 77.1372 133.619 77.4563C132.862 77.779 132.177 78.2495 131.604 78.8402C130.974 79.4772 130.477 80.234 130.144 81.0661C129.808 81.8968 129.637 82.7849 129.64 83.6809C129.64 83.9754 129.662 84.2695 129.704 84.561C129.753 84.892 129.821 85.2198 129.908 85.5432C130.309 85.3329 130.739 85.1825 131.183 85.0968C131.724 84.9962 132.273 84.9492 132.822 84.9564C134.202 84.9679 135.564 85.2677 136.821 85.8366C138.211 86.4657 139.485 87.3237 140.59 88.3749L140.603 88.3685ZM138.651 89.829C137.79 89.0251 136.795 88.3776 135.711 87.9157C134.702 87.4914 133.617 87.2745 132.523 87.2779C132.222 87.276 131.921 87.2974 131.623 87.3417C131.335 87.3863 131.052 87.4546 130.775 87.5458C131.372 88.4231 132.17 89.1448 133.103 89.6504C134.026 90.1473 135.059 90.4039 136.107 90.3966C136.514 90.3948 136.92 90.3499 137.319 90.2627C137.77 90.1548 138.211 90.0098 138.639 89.829H138.651Z" fill="white"/>
<path d="M159.57 92.5856H157.242V91.0804C156.811 91.651 156.257 92.1175 155.622 92.4453C154.994 92.7495 154.304 92.9024 153.607 92.8917C152.874 92.9344 152.141 92.8148 151.459 92.5414C150.778 92.268 150.165 91.8475 149.665 91.31C148.734 90.2599 148.269 88.7717 148.269 86.8457V79.1159H150.692V86.1696C150.612 87.3112 150.881 88.4502 151.464 89.435C151.726 89.7973 152.076 90.0872 152.481 90.2779C152.886 90.4686 153.332 90.5538 153.779 90.5256C154.377 90.5371 154.966 90.3826 155.482 90.0791C155.988 89.7723 156.399 89.3306 156.668 88.8036C156.863 88.4168 156.994 88.0012 157.057 87.5727C157.15 86.8133 157.189 86.0481 157.172 85.2831V79.1159H159.57V92.5856Z" fill="white"/>
<path d="M174.403 92.5854V90.9272C173.813 91.5468 173.107 92.0433 172.324 92.3877C171.553 92.7208 170.721 92.8902 169.881 92.8851C168.946 92.9116 168.015 92.7452 167.148 92.3963C166.28 92.0473 165.493 91.5234 164.836 90.857C164.171 90.1883 163.65 89.3908 163.305 88.5134C162.959 87.6361 162.797 86.6973 162.827 85.7549C162.822 84.8338 162.993 83.9202 163.331 83.0635C164.003 81.3599 165.315 79.9865 166.986 79.2369C167.859 78.8863 168.794 78.715 169.734 78.733C170.609 78.72 171.478 78.8871 172.285 79.2241C173.088 79.5652 173.811 80.069 174.409 80.7037V79.0774H176.858V92.5854H174.403ZM165.34 85.7612C165.323 86.3948 165.433 87.0253 165.666 87.615C165.898 88.2046 166.247 88.7412 166.692 89.1924C167.118 89.6395 167.632 89.9933 168.202 90.2316C168.772 90.4698 169.385 90.5872 170.002 90.5764C170.596 90.5745 171.183 90.45 171.726 90.2107C172.269 89.9715 172.757 89.6227 173.159 89.1861C173.596 88.765 173.942 88.2595 174.176 87.7003C174.411 87.1411 174.529 86.5399 174.524 85.9334C174.534 85.3057 174.42 84.6821 174.188 84.0986C173.956 83.5152 173.61 82.9835 173.172 82.5341C172.768 82.0898 172.276 81.7349 171.727 81.4921C171.177 81.2494 170.584 81.1242 169.983 81.1247C169.375 81.123 168.772 81.2419 168.21 81.4745C167.647 81.7072 167.137 82.0489 166.708 82.4801C166.278 82.9112 165.938 83.4232 165.708 83.9864C165.478 84.5496 165.361 85.1528 165.366 85.7612H165.34Z" fill="white"/>
<path d="M193.456 87.9935C193.012 89.4491 192.138 90.7365 190.949 91.6862C189.777 92.5506 188.349 92.9994 186.893 92.9617C185.957 92.9725 185.029 92.7947 184.163 92.4387C183.324 92.0768 182.568 91.5447 181.944 90.8762C181.313 90.2055 180.813 89.4224 180.471 88.5675C180.118 87.7161 179.936 86.8039 179.935 85.8825C179.915 84.0657 180.601 82.3121 181.848 80.9908C182.508 80.2769 183.304 79.7022 184.189 79.3007C185.065 78.9154 186.013 78.7198 186.97 78.7267C188.413 78.6931 189.827 79.142 190.988 80.0022C192.162 80.9149 193.024 82.1695 193.456 83.5929H190.803C190.449 82.8283 189.875 82.1864 189.155 81.7491C188.435 81.3117 187.601 81.0988 186.759 81.1375C186.182 81.1305 185.61 81.2482 185.083 81.4827C184.556 81.7172 184.085 82.0628 183.704 82.4959C182.89 83.4262 182.441 84.6205 182.441 85.857C182.441 87.0934 182.89 88.2878 183.704 89.218C184.109 89.6572 184.603 90.0045 185.153 90.2366C185.703 90.4688 186.296 90.5803 186.893 90.5637C187.707 90.5828 188.508 90.3609 189.195 89.9259C189.905 89.4577 190.464 88.7929 190.803 88.0126L193.456 87.9935Z" fill="white"/>
<path d="M199.297 92.5843H196.874V74.7267H199.297V80.6197C199.676 80.0509 200.203 79.5965 200.821 79.3059C201.509 78.9996 202.256 78.8493 203.009 78.8659C203.724 78.823 204.439 78.9418 205.101 79.2134C205.764 79.4851 206.357 79.9025 206.835 80.4348C207.811 81.6841 208.296 83.2468 208.2 84.829V92.5843H205.77V85.639C205.855 84.4784 205.59 83.3192 205.011 82.3098C204.749 81.9448 204.397 81.653 203.989 81.4621C203.582 81.2712 203.132 81.1876 202.684 81.2192C202.091 81.2084 201.506 81.3607 200.994 81.6593C200.492 81.968 200.086 82.4095 199.82 82.9348C199.624 83.3186 199.495 83.7325 199.437 84.1593C199.339 84.9226 199.298 85.6923 199.316 86.4617L199.297 92.5843Z" fill="white"/>
<path d="M224.184 74.7535C226.084 74.7535 227.53 75.1787 228.52 76.029C229.028 76.4822 229.425 77.0453 229.681 77.6754C229.938 78.3054 230.047 78.9857 230 79.6643C230.009 80.3335 229.841 80.9932 229.515 81.5776C229.179 82.1613 228.693 82.6438 228.106 82.9743C228.953 83.2162 229.685 83.7521 230.172 84.4859C230.69 85.2718 230.955 86.1978 230.931 87.139C230.938 87.9449 230.779 88.7436 230.466 89.486C230.182 90.18 229.746 90.8013 229.19 91.3036C228.655 91.7581 228.029 92.0929 227.353 92.2858C226.41 92.5121 225.44 92.6108 224.471 92.5791H220.351V74.7216L224.184 74.7535ZM222.908 90.1748H224.936C225.86 90.2574 226.786 90.0332 227.57 89.537C227.863 89.2829 228.093 88.9635 228.24 88.6047C228.387 88.2458 228.448 87.8574 228.418 87.4706C228.448 87.0453 228.385 86.6186 228.231 86.2208C228.078 85.8229 227.839 85.4636 227.532 85.1683C226.791 84.5987 225.868 84.3197 224.936 84.3838H222.908V90.1748ZM222.908 82.2218H223.731C224.718 82.3053 225.708 82.0945 226.575 81.6159C226.873 81.3797 227.107 81.0727 227.257 80.723C227.406 80.3733 227.465 79.9919 227.43 79.6133C227.457 79.2687 227.401 78.9227 227.267 78.6042C227.132 78.2858 226.924 78.0041 226.658 77.7829C225.954 77.3354 225.124 77.1274 224.292 77.1898H222.908V82.2218Z" fill="white"/>
<path d="M245.356 92.5856H243.029V91.0804C242.598 91.651 242.044 92.1175 241.409 92.4453C240.781 92.7495 240.091 92.9024 239.393 92.8917C238.66 92.9344 237.927 92.8148 237.246 92.5414C236.565 92.268 235.952 91.8475 235.452 91.31C234.521 90.2599 234.055 88.7717 234.055 86.8457V79.1159H236.479V86.1696C236.398 87.3112 236.667 88.4502 237.25 89.435C237.513 89.7973 237.863 90.0872 238.268 90.2779C238.673 90.4686 239.119 90.5538 239.566 90.5256C240.163 90.5371 240.753 90.3826 241.268 90.0791C241.774 89.7723 242.185 89.3306 242.455 88.8036C242.646 88.4156 242.778 88.0005 242.844 87.5727C242.937 86.8133 242.975 86.0481 242.958 85.2831V79.1159H245.356V92.5856Z" fill="white"/>
<path d="M248.364 88.2225H251.145C251.134 88.5507 251.194 88.8773 251.319 89.1808C251.444 89.4843 251.633 89.7577 251.872 89.9827C252.113 90.2117 252.398 90.3905 252.709 90.5087C253.019 90.627 253.351 90.6823 253.683 90.6715C254.291 90.6974 254.89 90.5152 255.38 90.1549C255.584 89.9996 255.749 89.7976 255.86 89.5657C255.971 89.3339 256.025 89.0789 256.017 88.822C256.023 88.6012 255.985 88.3815 255.905 88.1757C255.825 87.9699 255.705 87.782 255.552 87.623C255.119 87.2304 254.598 86.9462 254.034 86.7939C253.792 86.711 253.454 86.6026 253.02 86.475C252.248 86.2738 251.501 85.9849 250.794 85.614C250.273 85.2966 249.836 84.8592 249.519 84.3385C249.23 83.8249 249.085 83.2435 249.098 82.6548C249.098 82.1127 249.224 81.5782 249.467 81.0934C249.709 80.6085 250.061 80.1868 250.494 79.8613C251.46 79.0822 252.672 78.6729 253.913 78.707C255.111 78.6413 256.295 79.0004 257.255 79.721C257.671 80.0676 258.009 80.5 258.243 80.9887C258.477 81.4773 258.604 82.0108 258.613 82.5527H255.775C255.762 82.3288 255.702 82.1101 255.6 81.9103C255.498 81.7106 255.356 81.5341 255.182 81.392C254.774 81.095 254.276 80.9485 253.773 80.9774C253.293 80.9605 252.823 81.1192 252.452 81.4239C252.285 81.5559 252.15 81.7246 252.058 81.917C251.967 82.1095 251.92 82.3204 251.923 82.5336C251.923 83.2798 252.72 83.8984 254.315 84.3767L255.373 84.7084C256.388 84.9823 257.312 85.5191 258.052 86.2645C258.616 86.9668 258.902 87.8522 258.856 88.7518C258.862 89.3357 258.73 89.9127 258.47 90.4358C258.211 90.959 257.832 91.4134 257.363 91.7621C256.286 92.5921 254.953 93.0186 253.594 92.9675C252.248 93.0277 250.929 92.5714 249.908 91.6919C249.43 91.2478 249.046 90.7114 248.781 90.1151C248.516 89.5188 248.374 88.875 248.364 88.2225Z" fill="white"/>
<path d="M276.791 92.5843H268.366V74.7267H270.917V90.097H276.791V92.5843Z" fill="white"/>
<path d="M282.154 77.533H279.756V74.7523H282.154V77.533ZM279.756 92.5844V79.1147H282.154V92.5844H279.756Z" fill="white"/>
<path d="M288.475 92.5841H286.051V79.1144H288.373V80.6451C288.826 80.0815 289.399 79.6262 290.05 79.3122C290.706 79.0211 291.418 78.8775 292.136 78.8912C292.885 78.8426 293.636 78.9564 294.337 79.225C295.038 79.4936 295.673 79.9106 296.198 80.4474C297.134 81.4806 297.603 82.9687 297.608 84.9118V92.565H295.171V85.4284C295.261 84.3069 294.981 83.1869 294.374 82.2395C294.039 81.894 293.635 81.6228 293.189 81.4432C292.742 81.2637 292.263 81.18 291.782 81.1974C291.301 81.2149 290.829 81.3331 290.397 81.5445C289.964 81.7558 289.581 82.0556 289.272 82.4245C288.724 83.2344 288.456 84.5801 288.456 86.4488L288.475 92.5841Z" fill="white"/>
<path d="M303.253 86.7428C303.422 87.8064 303.962 88.7757 304.777 89.4788C305.478 90.0677 306.343 90.4284 307.255 90.5127C308.166 90.597 309.082 90.401 309.879 89.9508C310.543 89.563 311.088 89.0005 311.455 88.3245H314.184C313.662 89.6913 312.759 90.8799 311.582 91.7493C310.448 92.5521 309.087 92.9701 307.698 92.9419C306.76 92.9525 305.829 92.7724 304.962 92.4126C304.116 92.044 303.354 91.5057 302.724 90.8309C301.453 89.4763 300.736 87.6945 300.715 85.8372C300.706 84.928 300.871 84.0254 301.199 83.1777C301.527 82.3428 302.012 81.5786 302.628 80.9264C303.255 80.2161 304.028 79.6499 304.894 79.2668C305.761 78.8837 306.7 78.6927 307.647 78.7069C308.801 78.6982 309.938 78.9835 310.951 79.536C311.966 80.0871 312.829 80.8801 313.464 81.8447C313.862 82.4643 314.155 83.1452 314.331 83.8601C314.533 84.6778 314.629 85.518 314.618 86.3601V86.7428H303.253ZM311.939 84.5489C311.7 83.5537 311.151 82.6604 310.37 81.9978C309.618 81.3836 308.669 81.06 307.698 81.0858C306.697 81.067 305.72 81.3986 304.937 82.0233C304.139 82.6776 303.575 83.5726 303.33 84.5744L311.939 84.5489Z" fill="white"/>
</svg>
